<?xml version="1.0" encoding="iso-8859-1"?>
<!-- Generator: Adobe Illustrator 19.0.0, SVG Export Plug-In . SVG Version: 6.00 Build 0)  -->
<svg version="1.1" id="Layer_1" xmlns="http://www.w3.org/2000/svg" xmlns:xlink="http://www.w3.org/1999/xlink" x="0px" y="0px"
	 viewBox="0 0 512 512" style="enable-background:new 0 0 512 512;" xml:space="preserve">
<path style="fill:#FCB5B5;" d="M485.213,335.836l-82.289-26.793l70.035-26.793c-10.523-34.089-24.865-65.11-34.887-86.778
	C417.612,151.238,379.17,68.53,391.993,0H120.007c12.823,68.53-25.619,151.238-46.079,195.471
	c-10.023,21.668-24.364,52.691-34.887,86.778l70.035,26.793l-82.289,26.794C14.505,413.95,23.738,473.665,34.776,512H239.79
	l3.874-28.963L256,471.709l12.336,11.327L272.21,512h205.014C488.262,473.665,497.495,413.95,485.213,335.836z"/>
<path style="fill:#FD3B6D;" d="M243.664,483.037h24.671c34.505-86.057,118.562-146.9,216.877-147.2
	c-0.819-5.206-1.733-10.494-2.748-15.862c-2.417-12.778-5.716-25.448-9.505-37.725c-141.734,39.537-292.183,39.537-433.919,0
	c-3.789,12.276-7.089,24.945-9.505,37.725c-1.015,5.368-1.929,10.656-2.748,15.862C125.102,336.137,209.16,396.98,243.664,483.037z"
	/>
<circle style="fill:#FF9690;" cx="256" cy="150.156" r="11.327"/>
<g>
</g>
<g>
</g>
<g>
</g>
<g>
</g>
<g>
</g>
<g>
</g>
<g>
</g>
<g>
</g>
<g>
</g>
<g>
</g>
<g>
</g>
<g>
</g>
<g>
</g>
<g>
</g>
<g>
</g>
</svg>
